<?xml version="1.0" encoding="UTF-8"?>
<svg width="44px" height="44px" viewBox="0 0 44 44" version="1.1" xmlns="http://www.w3.org/2000/svg" xmlns:xlink="http://www.w3.org/1999/xlink">
    <!-- Generator: Sketch 55.2 (78181) - https://sketchapp.com -->
    <title>Icon / 44x44 / Menu</title>
    <desc>Created with Sketch.</desc>
    <g id="Icon-/-44x44-/-Menu" stroke="none" stroke-width="1" fill="none" fill-rule="evenodd">
        <path d="M8,10 L34,10 C35.1045695,10 36,10.8954305 36,12 C36,13.1045695 35.1045695,14 34,14 L8,14 C6.8954305,14 6,13.1045695 6,12 C6,10.8954305 6.8954305,10 8,10 Z M8,20 L19,20 C20.1045695,20 21,20.8954305 21,22 C21,23.1045695 20.1045695,24 19,24 L8,24 C6.8954305,24 6,23.1045695 6,22 C6,20.8954305 6.8954305,20 8,20 Z M8,31 L34,31 C35.1045695,31 36,31.8954305 36,33 C36,34.1045695 35.1045695,35 34,35 L8,35 C6.8954305,35 6,34.1045695 6,33 C6,31.8954305 6.8954305,31 8,31 Z" id="Combined-Shape" fill="#FFFFFF"></path>
    </g>
</svg>